Coordinates
version=1
nRows=4
nColumns=63
inDegrees=yes

Units are S.I. units (second, meters, Newtons, ...)
If the header above contains a line with 'inDegrees', this indicates whether rotational values are in degrees (yes) or radians (no).

endheader
time	pelvis_tilt	pelvis_list	pelvis_rotation	pelvis_tx	pelvis_ty	pelvis_tz	hip_flexion_r	hip_adduction_r	hip_rotation_r	knee_angle_r	knee_angle_r_beta	ankle_angle_r	subtalar_angle_r	mtp_angle_r	hip_flexion_l	hip_adduction_l	hip_rotation_l	knee_angle_l	knee_angle_l_beta	ankle_angle_l	subtalar_angle_l	mtp_angle_l	L5_S1_Flex_Ext	L5_S1_Lat_Bending	L5_S1_axial_rotation	L4_L5_Flex_Ext	L4_L5_Lat_Bending	L4_L5_axial_rotation	L3_L4_Flex_Ext	L3_L4_Lat_Bending	L3_L4_axial_rotation	L2_L3_Flex_Ext	L2_L3_Lat_Bending	L2_L3_axial_rotation	L1_L2_Flex_Ext	L1_L2_Lat_Bending	L1_L2_axial_rotation	L1_T12_Flex_Ext	L1_T12_Lat_Bending	L1_T12_axial_rotation	Abs_r3	Abs_r2	Abs_r1	Abs_t1	Abs_t2	neck_flexion	neck_bending	neck_rotation	arm_flex_r	arm_add_r	arm_rot_r	elbow_flex_r	pro_sup_r	wrist_flex_r	wrist_dev_r	arm_flex_l	arm_add_l	arm_rot_l	elbow_flex_l	pro_sup_l	wrist_flex_l	wrist_dev_l
      0.61666667	     -5.29857146	     -5.26868238	     92.59867823	      0.30866709	      0.88112326	      0.72176296	     -1.93393716	     -2.50593792	    -11.50457492	      3.37598483	      0.05892205	     28.52183159	     15.54467553	      0.00000000	      0.98675089	      3.94453867	      6.59383653	      5.38192408	      0.09393230	     26.53102206	     -4.33620878	      0.00000000	     -0.21134167	     -0.50491150	     -2.13725779	     -0.39248261	     -0.67153230	     -2.27083640	     -0.34721323	     -1.22764183	     -2.27083640	     -0.24154239	     -1.22764183	     -1.87010057	     -0.19625187	     -1.02961554	     -1.73652195	     -0.12076063	     -0.78210792	     -1.60294334	     -1.50959241	     -5.71165992	    -11.88678665	      0.00000000	      0.00000000	      9.75876129	     -0.88805050	     -1.57563994	     39.18159959	      7.40450178	    156.81725123	      0.24899604	      1.32335106	    -24.95541642	    -21.97858404	     -6.78974442	    -13.84961021	      1.65096977	     39.45990056	     87.79914323	    -16.75430011	      9.65297513
      0.63333333	     -5.58315569	     -4.69494362	     92.68560879	      0.31029366	      0.88281491	      0.72352497	     -2.32422252	     -2.72204886	    -11.66992635	      3.63018374	      0.06335866	     28.57739637	     15.69369540	      0.00000000	      0.69373099	      4.08061280	      5.23207688	      5.85374886	      0.10216719	     26.68965161	     -2.72728109	      0.00000000	     -0.28469864	     -0.57083604	     -2.69295894	     -0.52871384	     -0.75921194	     -2.86126887	     -0.46773139	     -1.38793076	     -2.86126887	     -0.32538207	     -1.38793076	     -2.35633907	     -0.26437115	     -1.16404886	     -2.18802914	     -0.16267680	     -0.88422503	     -2.01971920	     -2.03357389	     -6.45741149	    -14.97742974	      0.00000000	      0.00000000	      8.30663146	     -0.03453104	      0.88678562	     42.87437484	     10.01573391	    161.75516867	      0.18009420	      1.33507980	    -42.17800624	    -22.97497219	     -9.26816420	    -13.93698018	     -3.84659887	     38.18627076	     87.34393092	    -15.30195489	      7.20492046
      0.65000000	     -5.82255378	     -4.16580489	     92.47574869	      0.31157421	      0.88414958	      0.72511096	     -2.62587984	     -2.96145754	    -11.66343101	      3.99555744	      0.06973563	     28.56588135	     15.76718244	      0.00000000	      0.28391581	      4.25401988	      4.61257957	      6.07681464	      0.10606042	     26.42943326	     -2.46289119	      0.00000000	     -0.35530693	     -0.62046396	     -3.08777715	     -0.65984050	     -0.82521706	     -3.28076322	     -0.58373376	     -1.50859607	     -3.28076322	     -0.40608029	     -1.50859607	     -2.70180501	     -0.32993802	     -1.26525010	     -2.50881894	     -0.20302238	     -0.96109867	     -2.31583286	     -2.53792189	     -7.01881239	    -17.17329019	      0.00000000	      0.00000000	      6.88742923	      0.26489653	      2.95558362	     46.64525922	     12.45192957	    165.98185524	      0.14463066	      1.54659389	    -60.29215446	    -22.57149772	    -10.84896385	    -14.10592707	     -6.75551209	     35.55267991	     85.79808754	    -14.36180742	      4.02338983
      0.66666667	     -6.13697790	     -3.47641861	     92.47947384	      0.31242798	      0.88575168	      0.72752608	     -3.09074316	     -3.28937918	    -11.84254116	      4.43243342	      0.07736056	     28.40831185	     15.59784766	      0.00000000	     -0.24684312	      4.53356253	      4.65268596	      6.34391746	      0.11072225	     25.90631453	     -2.73775954	      0.00000000	     -0.44501308	     -0.67152776	     -3.67348564	     -0.82643379	     -0.89313193	     -3.90307849	     -0.73111199	     -1.63275260	     -3.90307849	     -0.50860545	     -1.63275260	     -3.21429993	     -0.41323915	     -1.36937942	     -2.98470708	     -0.25428047	     -1.04019651	     -2.75511423	     -3.17868393	     -7.59645637	    -20.43082507	      0.00000000	      0.00000000	      5.27613465	      0.56935039	      6.66903178	     51.09769046	     15.77555503	    167.74922205	      0.12101641	      1.56530269	    -68.33696660	    -22.67298714	    -12.65458965	    -14.19444920	     -9.41560432	     32.68358387	     83.49310922	    -12.81245927	      1.14467875
